<svg xmlns="http://www.w3.org/2000/svg" width="378.785" height="385.272" viewBox="0 0 378.785 385.272">
  <g id="Agrupar_1" data-name="Agrupar 1" transform="translate(-494 -134)">
    <g id="Caminho_2" data-name="Caminho 2" transform="translate(494 134)" fill="#fff">
      <path d="M 189.3924560546875 378.2848815917969 C 176.5760040283203 378.2848815917969 163.7677612304688 376.9937133789063 151.3235015869141 374.4472351074219 C 139.1957550048828 371.9655151367188 127.2665023803711 368.2625122070313 115.8671569824219 363.4409790039063 C 104.6746063232422 358.7069396972656 93.87935638427734 352.847412109375 83.78125762939453 346.0253295898438 C 73.77895355224609 339.2678833007813 64.37320709228516 331.5074157714844 55.8253059387207 322.9595642089844 C 47.2774543762207 314.4116821289063 39.51700592041016 305.0059204101563 32.75955581665039 295.0036315917969 C 25.93745613098145 284.905517578125 20.07795524597168 274.1102905273438 15.34390640258789 262.917724609375 C 10.5223560333252 251.5183715820313 6.819355964660645 239.5891265869141 4.337656021118164 227.4613800048828 C 1.791156053543091 215.0171203613281 0.5000060796737671 202.2088775634766 0.5000060796737671 189.3924255371094 C 0.5000060796737671 176.5759735107422 1.791156053543091 163.7677307128906 4.337656021118164 151.3234710693359 C 6.819355964660645 139.1957244873047 10.5223560333252 127.266471862793 15.34390640258789 115.8671264648438 C 20.07795524597168 104.6745758056641 25.93745613098145 93.87932586669922 32.75955581665039 83.78122711181641 C 39.51700592041016 73.77892303466797 47.2774543762207 64.37322235107422 55.8253059387207 55.82532501220703 C 64.37320709228516 47.27742385864258 73.77895355224609 39.51697540283203 83.78125762939453 32.75957489013672 C 93.87935638427734 25.93742561340332 104.6746063232422 20.07797622680664 115.8671569824219 15.34392547607422 C 127.2665023803711 10.52237510681152 139.1957550048828 6.81932544708252 151.3235015869141 4.33767557144165 C 163.7677612304688 1.791175484657288 176.5760040283203 0.5000255107879639 189.3924560546875 0.5000255107879639 C 202.2089080810547 0.5000255107879639 215.0171508789063 1.791175484657288 227.4614105224609 4.33767557144165 C 239.5891571044922 6.81932544708252 251.5184020996094 10.52237510681152 262.9177551269531 15.34392547607422 C 274.1103210449219 20.07797622680664 284.9055480957031 25.93742561340332 295.003662109375 32.75957489013672 C 305.0059509277344 39.51697540283203 314.4117126464844 47.27742385864258 322.9595947265625 55.82532501220703 C 331.5074462890625 64.37322235107422 339.2679138183594 73.77892303466797 346.0253601074219 83.78122711181641 C 352.8474426269531 93.87932586669922 358.7069702148438 104.6745758056641 363.4410095214844 115.8671264648438 C 368.2625427246094 127.266471862793 371.9655456542969 139.1957244873047 374.447265625 151.3234710693359 C 376.9937438964844 163.7677307128906 378.284912109375 176.5759735107422 378.284912109375 189.3924255371094 C 378.284912109375 202.2088775634766 376.9937438964844 215.0171203613281 374.447265625 227.4613800048828 C 371.9655456542969 239.5891265869141 368.2625427246094 251.5183715820313 363.4410095214844 262.917724609375 C 358.7069702148438 274.1102905273438 352.8474426269531 284.905517578125 346.0253601074219 295.0036315917969 C 339.2679138183594 305.0059204101563 331.5074462890625 314.4116821289063 322.9595947265625 322.9595642089844 C 314.4117126464844 331.5074157714844 305.0059509277344 339.2678833007813 295.003662109375 346.0253295898438 C 284.9055480957031 352.847412109375 274.1103210449219 358.7069396972656 262.9177551269531 363.4409790039063 C 251.5184020996094 368.2625122070313 239.5891571044922 371.9655151367188 227.4614105224609 374.4472351074219 C 215.0171508789063 376.9937133789063 202.2089080810547 378.2848815917969 189.3924560546875 378.2848815917969 Z" stroke="none"/>
      <path d="M 189.3924560546875 0.999969482421875 C 176.6096038818359 0.999969482421875 163.8351135253906 2.2877197265625 151.4237518310547 4.827484130859375 C 139.3283538818359 7.302520751953125 127.430908203125 10.9957275390625 116.0619201660156 15.80438232421875 C 104.8991088867188 20.52581787109375 94.13250732421875 26.36978149414063 84.0611572265625 33.17388916015625 C 74.085205078125 39.91348266601563 64.70425415039063 47.65347290039063 56.17889404296875 56.17886352539063 C 47.65350341796875 64.7042236328125 39.91351318359375 74.08517456054688 33.17391967773438 84.06112670898438 C 26.36981201171875 94.13247680664063 20.52584838867188 104.8990783691406 15.80441284179688 116.0618896484375 C 10.99575805664063 127.4308776855469 7.30255126953125 139.3283233642578 4.8275146484375 151.4237213134766 C 2.287750244140625 163.8350830078125 1 176.6095733642578 1 189.3924255371094 C 1 202.1752777099609 2.287750244140625 214.9497680664063 4.8275146484375 227.3611297607422 C 7.30255126953125 239.4565277099609 10.99575805664063 251.3539733886719 15.80441284179688 262.7229309082031 C 20.52584838867188 273.8857727050781 26.36981201171875 284.6523742675781 33.17391967773438 294.7237243652344 C 39.91351318359375 304.6996154785156 47.65350341796875 314.08056640625 56.17889404296875 322.6059875488281 C 64.70425415039063 331.1313781738281 74.085205078125 338.8713684082031 84.0611572265625 345.6109619140625 C 94.13250732421875 352.4150390625 104.8991088867188 358.2589721679688 116.0619201660156 362.9804382324219 C 127.430908203125 367.7890625 139.3283538818359 371.4822692871094 151.4237518310547 373.9573364257813 C 163.8351135253906 376.4970703125 176.6096038818359 377.7848205566406 189.3924560546875 377.7848205566406 C 202.1753082275391 377.7848205566406 214.9497985839844 376.4970703125 227.3611602783203 373.9573364257813 C 239.4565582275391 371.4822692871094 251.35400390625 367.7890625 262.7230224609375 362.9804382324219 C 273.8858032226563 358.2589721679688 284.6524047851563 352.4150390625 294.7237548828125 345.6109619140625 C 304.69970703125 338.8713684082031 314.0806579589844 331.1313781738281 322.6060180664063 322.6059875488281 C 331.1314086914063 314.08056640625 338.8713989257813 304.6996154785156 345.6110229492188 294.7237243652344 C 352.4151000976563 284.6523742675781 358.2590637207031 273.8857727050781 362.9804992675781 262.7229309082031 C 367.7891540527344 251.3539733886719 371.4823608398438 239.4565277099609 373.9573974609375 227.3611297607422 C 376.4971618652344 214.9497680664063 377.784912109375 202.1752777099609 377.784912109375 189.3924255371094 C 377.784912109375 176.6095733642578 376.4971618652344 163.8350830078125 373.9573974609375 151.4237213134766 C 371.4823608398438 139.3283233642578 367.7891540527344 127.4308776855469 362.9804992675781 116.0618896484375 C 358.2590637207031 104.8990783691406 352.4151000976563 94.13247680664063 345.6110229492188 84.06112670898438 C 338.8713989257813 74.08517456054688 331.1314086914063 64.7042236328125 322.6060180664063 56.17886352539063 C 314.0806579589844 47.65347290039063 304.69970703125 39.91348266601563 294.7237548828125 33.17388916015625 C 284.6524047851563 26.36978149414063 273.8858032226563 20.52581787109375 262.7230224609375 15.80438232421875 C 251.35400390625 10.9957275390625 239.4565582275391 7.302520751953125 227.3611602783203 4.827484130859375 C 214.9497985839844 2.2877197265625 202.1753082275391 0.999969482421875 189.3924560546875 0.999969482421875 M 189.3924560546875 -3.0517578125e-05 C 293.9909973144531 -3.0517578125e-05 378.784912109375 84.79388427734375 378.784912109375 189.3924255371094 C 378.784912109375 293.990966796875 293.9909973144531 378.7848205566406 189.3924560546875 378.7848205566406 C 84.79391479492188 378.7848205566406 0 293.990966796875 0 189.3924255371094 C 0 84.79388427734375 84.79391479492188 -3.0517578125e-05 189.3924560546875 -3.0517578125e-05 Z" stroke="none" fill="#707070"/>
    </g>
    <g id="Twirl_Logo" data-name="Twirl Logo" transform="translate(-51.637 -67.17)">
      <path id="Caminho_1" data-name="Caminho 1" stroke="#2f3c50" d="M495.025,514.414c61.324-21.537,6.642-30.175-10.279-33.919s12.089-18.944,60.644-35.975-130.578-11.413-87.368-25.7,143.347-26.99,113.065-45.226-195.127,17.866-170.625-6.167,214.823-29.808,225.552-59.31-333.477,36.7-280.029-21.891,318.637,21.585,296.949-40.5-434.682-47.9-291.81,62.388" fill="#fff" transform="translate(248.434 56.028)" stroke-linecap="round" stroke-linejoin="round" stroke-width="32" stroke-dasharray="4 4"/>
    </g>
  </g>
</svg>
